<svg width="39" height="38" viewBox="0 0 39 38" fill="none" xmlns="http://www.w3.org/2000/svg">
<path fill-rule="evenodd" clip-rule="evenodd" d="M24.3755 11.101C22.8069 10.0572 20.9628 9.5 19.0764 9.5V0C22.8493 0 26.5375 1.11433 29.6746 3.20208C32.8117 5.28982 35.2567 8.25722 36.7006 11.729C38.1444 15.2008 38.5222 19.0211 37.7862 22.7067C37.0501 26.3923 35.2333 29.7779 32.5654 32.435C29.8975 35.0922 26.4984 36.9018 22.798 37.6349C19.0975 38.368 15.2619 37.9917 11.7761 36.5537C8.2904 35.1156 5.31108 32.6804 3.21495 29.5558C1.11881 26.4313 0 22.7578 0 19H9.53818C9.53818 20.8789 10.0976 22.7156 11.1457 24.2779C12.1937 25.8402 13.6834 27.0578 15.4263 27.7769C17.1691 28.4959 19.0869 28.684 20.9372 28.3174C22.7874 27.9509 24.4869 27.0461 25.8209 25.7176C27.1548 24.3889 28.0632 22.6962 28.4312 20.8534C28.7993 19.0105 28.6104 17.1004 27.8885 15.3645C27.1666 13.6286 25.944 12.1449 24.3755 11.101Z" fill="#132050"/>
<path fill-rule="evenodd" clip-rule="evenodd" d="M9.53818 5.02068e-06C9.53818 1.24756 9.29147 2.48291 8.81213 3.6355C8.33279 4.78809 7.63022 5.83536 6.74451 6.71752C5.85881 7.59968 4.80733 8.29944 3.6501 8.77687C2.49287 9.25428 1.25257 9.50001 4.16923e-07 9.50001L0 19C2.50514 19 4.98575 18.5086 7.30021 17.5537C9.61467 16.5989 11.7177 15.1993 13.489 13.435C15.2604 11.6708 16.6656 9.5762 17.6243 7.27099C18.5829 4.9658 19.0764 2.49511 19.0764 0L9.53818 5.02068e-06Z" fill="#132050"/>
</svg>
