<svg width="25" height="25" viewBox="0 0 25 25" fill="none" xmlns="http://www.w3.org/2000/svg">
<path d="M7.70002 12.5C7.70002 13.8255 6.62551 14.9 5.30002 14.9C3.97454 14.9 2.90002 13.8255 2.90002 12.5C2.90002 11.1745 3.97454 10.1 5.30002 10.1C6.62551 10.1 7.70002 11.1745 7.70002 12.5Z" stroke="#132050" stroke-width="2"/>
<path d="M14.9 12.5C14.9 13.8255 13.8255 14.9 12.5 14.9C11.1745 14.9 10.1 13.8255 10.1 12.5C10.1 11.1745 11.1745 10.1 12.5 10.1C13.8255 10.1 14.9 11.1745 14.9 12.5Z" stroke="#132050" stroke-width="2"/>
<path d="M22.1 12.5C22.1 13.8255 21.0255 14.9 19.7 14.9C18.3745 14.9 17.3 13.8255 17.3 12.5C17.3 11.1745 18.3745 10.1 19.7 10.1C21.0255 10.1 22.1 11.1745 22.1 12.5Z" stroke="#132050" stroke-width="2"/>
</svg>
