<svg width="24" height="24" viewBox="0 0 24 24" fill="none" xmlns="http://www.w3.org/2000/svg">
<path d="M11.9999 7.20002C10.6744 7.20002 9.5999 6.12551 9.5999 4.80002C9.5999 3.47454 10.6744 2.40002 11.9999 2.40002C13.3254 2.40002 14.3999 3.47454 14.3999 4.80002C14.3999 6.12551 13.3254 7.20002 11.9999 7.20002Z" stroke="#8F8F8F" stroke-width="2"/>
<path d="M11.9999 14.4C10.6744 14.4 9.5999 13.3255 9.5999 12C9.5999 10.6745 10.6744 9.60002 11.9999 9.60002C13.3254 9.60002 14.3999 10.6745 14.3999 12C14.3999 13.3255 13.3254 14.4 11.9999 14.4Z" stroke="#8F8F8F" stroke-width="2"/>
<path d="M11.9999 21.6C10.6744 21.6 9.5999 20.5255 9.5999 19.2C9.5999 17.8745 10.6744 16.8 11.9999 16.8C13.3254 16.8 14.3999 17.8745 14.3999 19.2C14.3999 20.5255 13.3254 21.6 11.9999 21.6Z" stroke="#8F8F8F" stroke-width="2"/>
</svg>
