<svg width="21" height="20" viewBox="0 0 21 20" fill="none" xmlns="http://www.w3.org/2000/svg">
<g clip-path="url(#clip0_109_180)">
<path d="M20.3051 10.2312C20.3051 9.55141 20.25 8.86797 20.1324 8.19922H10.7001V12.05H16.1015C15.8774 13.292 15.1572 14.3907 14.1026 15.0888V17.5874H17.3251C19.2175 15.8457 20.3051 13.2736 20.3051 10.2312Z" fill="#4285F4"/>
<path d="M10.6999 19.9998C13.397 19.9998 15.6714 19.1143 17.3286 17.5857L14.1061 15.0871C13.2096 15.697 12.0521 16.0424 10.7036 16.0424C8.09474 16.0424 5.88272 14.2824 5.08904 11.916H1.76367V14.4918C3.46127 17.8686 6.91892 19.9998 10.6999 19.9998Z" fill="#34A853"/>
<path d="M5.08552 11.9163C4.66664 10.6743 4.66664 9.32947 5.08552 8.0875V5.51172H1.76382C0.345489 8.33737 0.345489 11.6664 1.76382 14.4921L5.08552 11.9163Z" fill="#FBBC04"/>
<path d="M10.6999 3.95805C12.1256 3.936 13.5035 4.47247 14.536 5.45722L17.3911 2.60218C15.5833 0.904587 13.1838 -0.0287217 10.6999 0.000673888C6.91892 0.000673888 3.46126 2.13185 1.76367 5.51234L5.08537 8.08813C5.87537 5.71811 8.09106 3.95805 10.6999 3.95805Z" fill="#EA4335"/>
</g>
<defs>
<clipPath id="clip0_109_180">
<rect width="20" height="20" fill="white" transform="translate(0.5)"/>
</clipPath>
</defs>
</svg>
