<svg width="25" height="25" viewBox="0 0 25 25" fill="none" xmlns="http://www.w3.org/2000/svg">
<path d="M20.314 18.5392C20.314 18.5392 19.2689 19.5543 19.0128 19.8518C18.5956 20.2921 18.104 20.5 17.4597 20.5C17.3977 20.5 17.3316 20.5 17.2696 20.4959C16.0428 20.4185 14.9028 19.9456 14.0477 19.542C11.7097 18.4251 9.65679 16.8394 7.95081 14.8297C6.54225 13.1543 5.60045 11.6052 4.97672 9.94204C4.59256 8.92701 4.45212 8.13618 4.51408 7.39019C4.55539 6.91325 4.74127 6.51783 5.08412 6.17949L6.49268 4.78943C6.69508 4.60191 6.90988 4.5 7.12054 4.5C7.38078 4.5 7.59144 4.6549 7.72362 4.78535C7.72776 4.78943 7.73189 4.7935 7.73602 4.79758C7.98799 5.02994 8.22757 5.27045 8.47954 5.52726C8.60759 5.65771 8.73977 5.78815 8.87196 5.92268L9.99963 7.03554C10.4375 7.46764 10.4375 7.86713 9.99963 8.29924C9.87984 8.41745 9.76418 8.53567 9.64439 8.64981C9.29742 9.00038 9.56999 8.73139 9.21062 9.04935C9.20236 9.0575 9.19409 9.06158 9.18996 9.06973C8.83473 9.42031 8.90082 9.76273 8.97517 9.99508C8.9793 10.0073 8.98343 10.0195 8.98756 10.0318C9.28084 10.7329 9.69391 11.3933 10.3218 12.1801L10.3259 12.1841C11.466 13.5701 12.668 14.6504 13.994 15.4779C14.1633 15.5839 14.3368 15.6695 14.502 15.751C14.6507 15.8244 14.7912 15.8937 14.911 15.9671C14.9275 15.9752 14.944 15.9874 14.9605 15.9956C15.101 16.0649 15.2332 16.0975 15.3695 16.0975C15.7123 16.0975 15.9271 15.8855 15.9973 15.8162L16.807 15.0172C16.9475 14.8786 17.1705 14.7115 17.4307 14.7115C17.6868 14.7115 17.8975 14.8704 18.0256 15.009C18.0297 15.0131 18.0297 15.0131 18.0338 15.0172L20.3098 17.2633C20.7353 17.6791 20.314 18.5392 20.314 18.5392Z" stroke="#132050" stroke-width="2" stroke-linecap="round" stroke-linejoin="round"/>
</svg>
